<mxfile host="app.diagrams.net" agent="Mozilla/5.0 (Windows NT 10.0; Win64; x64; rv:133.0) Gecko/20100101 Firefox/133.0" version="26.0.2">
  <diagram name="Page-1" id="LXkwv8Eleto9B9SRbuWE">
    <mxGraphModel dx="1221" dy="733" grid="1" gridSize="10" guides="1" tooltips="1" connect="1" arrows="1" fold="1" page="1" pageScale="1" pageWidth="827" pageHeight="1169" math="0" shadow="0">
      <root>
        <mxCell id="0" />
        <mxCell id="1" parent="0" />
        <mxCell id="fxOWRYQQargrTOBfE-RS-1" value="user" style="swimlane;fontStyle=1;align=center;verticalAlign=top;childLayout=stackLayout;horizontal=1;startSize=26;horizontalStack=0;resizeParent=1;resizeParentMax=0;resizeLast=0;collapsible=1;marginBottom=0;whiteSpace=wrap;html=1;" parent="1" vertex="1">
          <mxGeometry x="30" y="50" width="160" height="210" as="geometry" />
        </mxCell>
        <mxCell id="fxOWRYQQargrTOBfE-RS-2" value="&lt;div&gt;+id:int&lt;/div&gt;&lt;div&gt;+login:string&lt;/div&gt;&lt;div&gt;+password:string&lt;/div&gt;&lt;div&gt;+createdAt:date&lt;/div&gt;&lt;div&gt;+updatedAt:string&lt;br&gt;&lt;/div&gt;&lt;div&gt;+roleId:int&lt;/div&gt;&lt;div&gt;+profileId:int&lt;br&gt;&lt;/div&gt;&lt;div&gt;+AuthId:int&lt;br&gt;&lt;/div&gt;&lt;div&gt;&lt;br&gt;&lt;/div&gt;" style="text;strokeColor=none;fillColor=none;align=left;verticalAlign=top;spacingLeft=4;spacingRight=4;overflow=hidden;rotatable=0;points=[[0,0.5],[1,0.5]];portConstraint=eastwest;whiteSpace=wrap;html=1;" parent="fxOWRYQQargrTOBfE-RS-1" vertex="1">
          <mxGeometry y="26" width="160" height="134" as="geometry" />
        </mxCell>
        <mxCell id="fxOWRYQQargrTOBfE-RS-3" value="" style="line;strokeWidth=1;fillColor=none;align=left;verticalAlign=middle;spacingTop=-1;spacingLeft=3;spacingRight=3;rotatable=0;labelPosition=right;points=[];portConstraint=eastwest;strokeColor=inherit;" parent="fxOWRYQQargrTOBfE-RS-1" vertex="1">
          <mxGeometry y="160" width="160" height="8" as="geometry" />
        </mxCell>
        <mxCell id="fxOWRYQQargrTOBfE-RS-4" value="&lt;div&gt;+ ifExiste()&lt;/div&gt;&lt;div&gt;+ passwordOk()&lt;/div&gt;&lt;div&gt;&lt;br&gt;&lt;/div&gt;" style="text;strokeColor=none;fillColor=none;align=left;verticalAlign=top;spacingLeft=4;spacingRight=4;overflow=hidden;rotatable=0;points=[[0,0.5],[1,0.5]];portConstraint=eastwest;whiteSpace=wrap;html=1;" parent="fxOWRYQQargrTOBfE-RS-1" vertex="1">
          <mxGeometry y="168" width="160" height="42" as="geometry" />
        </mxCell>
        <mxCell id="fxOWRYQQargrTOBfE-RS-15" value="Role" style="swimlane;fontStyle=1;align=center;verticalAlign=top;childLayout=stackLayout;horizontal=1;startSize=26;horizontalStack=0;resizeParent=1;resizeParentMax=0;resizeLast=0;collapsible=1;marginBottom=0;whiteSpace=wrap;html=1;" parent="1" vertex="1">
          <mxGeometry x="400" y="40" width="160" height="80" as="geometry" />
        </mxCell>
        <mxCell id="fxOWRYQQargrTOBfE-RS-17" value="" style="line;strokeWidth=1;fillColor=none;align=left;verticalAlign=middle;spacingTop=-1;spacingLeft=3;spacingRight=3;rotatable=0;labelPosition=right;points=[];portConstraint=eastwest;strokeColor=inherit;" parent="fxOWRYQQargrTOBfE-RS-15" vertex="1">
          <mxGeometry y="26" width="160" height="10" as="geometry" />
        </mxCell>
        <mxCell id="fxOWRYQQargrTOBfE-RS-16" value="&lt;div&gt;+id:int&lt;/div&gt;&lt;div&gt;+name:string&lt;/div&gt;&lt;div&gt;&lt;br&gt;&lt;/div&gt;&lt;div&gt;&lt;br&gt;&lt;/div&gt;" style="text;strokeColor=none;fillColor=none;align=left;verticalAlign=top;spacingLeft=4;spacingRight=4;overflow=hidden;rotatable=0;points=[[0,0.5],[1,0.5]];portConstraint=eastwest;whiteSpace=wrap;html=1;" parent="fxOWRYQQargrTOBfE-RS-15" vertex="1">
          <mxGeometry y="36" width="160" height="44" as="geometry" />
        </mxCell>
        <mxCell id="fxOWRYQQargrTOBfE-RS-19" style="edgeStyle=orthogonalEdgeStyle;rounded=0;orthogonalLoop=1;jettySize=auto;html=1;entryX=-0.006;entryY=0.243;entryDx=0;entryDy=0;entryPerimeter=0;exitX=1.006;exitY=0.375;exitDx=0;exitDy=0;exitPerimeter=0;" parent="1" source="fxOWRYQQargrTOBfE-RS-2" target="fxOWRYQQargrTOBfE-RS-16" edge="1">
          <mxGeometry relative="1" as="geometry">
            <mxPoint x="230" y="150" as="sourcePoint" />
          </mxGeometry>
        </mxCell>
        <mxCell id="ssZqVwN0dkvFXgOk5NB9-2" value="1..*" style="edgeLabel;html=1;align=center;verticalAlign=middle;resizable=0;points=[];" parent="fxOWRYQQargrTOBfE-RS-19" vertex="1" connectable="0">
          <mxGeometry x="-0.8617" y="1" relative="1" as="geometry">
            <mxPoint as="offset" />
          </mxGeometry>
        </mxCell>
        <mxCell id="ssZqVwN0dkvFXgOk5NB9-4" value="1" style="edgeLabel;html=1;align=center;verticalAlign=middle;resizable=0;points=[];" parent="fxOWRYQQargrTOBfE-RS-19" vertex="1" connectable="0">
          <mxGeometry x="0.8292" relative="1" as="geometry">
            <mxPoint as="offset" />
          </mxGeometry>
        </mxCell>
        <mxCell id="ssZqVwN0dkvFXgOk5NB9-6" value="Possede " style="edgeLabel;html=1;align=center;verticalAlign=middle;resizable=0;points=[];" parent="fxOWRYQQargrTOBfE-RS-19" vertex="1" connectable="0">
          <mxGeometry x="-0.0256" y="-1" relative="1" as="geometry">
            <mxPoint as="offset" />
          </mxGeometry>
        </mxCell>
        <mxCell id="fxOWRYQQargrTOBfE-RS-20" value="Profil" style="swimlane;fontStyle=1;align=center;verticalAlign=top;childLayout=stackLayout;horizontal=1;startSize=26;horizontalStack=0;resizeParent=1;resizeParentMax=0;resizeLast=0;collapsible=1;marginBottom=0;whiteSpace=wrap;html=1;" parent="1" vertex="1">
          <mxGeometry x="400" y="140" width="160" height="224" as="geometry" />
        </mxCell>
        <mxCell id="fxOWRYQQargrTOBfE-RS-21" value="&lt;div&gt;+id:int&lt;/div&gt;&lt;div&gt;+user:id&lt;br&gt;&lt;/div&gt;&lt;div&gt;+firstNalme:string&lt;/div&gt;&lt;div&gt;+lastName:string&lt;/div&gt;&lt;div&gt;+phone:int&lt;/div&gt;&lt;div&gt;+email:string&lt;/div&gt;&lt;div&gt;+address1&lt;/div&gt;&lt;div&gt;+adress2&lt;/div&gt;&lt;div&gt;+postalCode&lt;/div&gt;&lt;div&gt;+city&lt;br&gt;&lt;/div&gt;" style="text;strokeColor=none;fillColor=none;align=left;verticalAlign=top;spacingLeft=4;spacingRight=4;overflow=hidden;rotatable=0;points=[[0,0.5],[1,0.5]];portConstraint=eastwest;whiteSpace=wrap;html=1;" parent="fxOWRYQQargrTOBfE-RS-20" vertex="1">
          <mxGeometry y="26" width="160" height="164" as="geometry" />
        </mxCell>
        <mxCell id="fxOWRYQQargrTOBfE-RS-23" value="+ method(type): type" style="text;strokeColor=none;fillColor=none;align=left;verticalAlign=top;spacingLeft=4;spacingRight=4;overflow=hidden;rotatable=0;points=[[0,0.5],[1,0.5]];portConstraint=eastwest;whiteSpace=wrap;html=1;" parent="fxOWRYQQargrTOBfE-RS-20" vertex="1">
          <mxGeometry y="190" width="160" height="26" as="geometry" />
        </mxCell>
        <mxCell id="fxOWRYQQargrTOBfE-RS-22" value="" style="line;strokeWidth=1;fillColor=none;align=left;verticalAlign=middle;spacingTop=-1;spacingLeft=3;spacingRight=3;rotatable=0;labelPosition=right;points=[];portConstraint=eastwest;strokeColor=inherit;" parent="fxOWRYQQargrTOBfE-RS-20" vertex="1">
          <mxGeometry y="216" width="160" height="8" as="geometry" />
        </mxCell>
        <mxCell id="fxOWRYQQargrTOBfE-RS-26" style="edgeStyle=orthogonalEdgeStyle;rounded=0;orthogonalLoop=1;jettySize=auto;html=1;exitX=1;exitY=0.923;exitDx=0;exitDy=0;entryX=-0.025;entryY=0.154;entryDx=0;entryDy=0;entryPerimeter=0;exitPerimeter=0;" parent="1" source="fxOWRYQQargrTOBfE-RS-2" target="fxOWRYQQargrTOBfE-RS-21" edge="1">
          <mxGeometry relative="1" as="geometry" />
        </mxCell>
        <mxCell id="ssZqVwN0dkvFXgOk5NB9-7" value="1" style="edgeLabel;html=1;align=center;verticalAlign=middle;resizable=0;points=[];" parent="fxOWRYQQargrTOBfE-RS-26" vertex="1" connectable="0">
          <mxGeometry x="-0.8136" y="-1" relative="1" as="geometry">
            <mxPoint as="offset" />
          </mxGeometry>
        </mxCell>
        <mxCell id="ssZqVwN0dkvFXgOk5NB9-11" value="est Defini par" style="edgeLabel;html=1;align=center;verticalAlign=middle;resizable=0;points=[];" parent="fxOWRYQQargrTOBfE-RS-26" vertex="1" connectable="0">
          <mxGeometry x="0.0254" relative="1" as="geometry">
            <mxPoint as="offset" />
          </mxGeometry>
        </mxCell>
        <mxCell id="ssZqVwN0dkvFXgOk5NB9-12" value="1" style="edgeLabel;html=1;align=center;verticalAlign=middle;resizable=0;points=[];" parent="fxOWRYQQargrTOBfE-RS-26" vertex="1" connectable="0">
          <mxGeometry x="0.8729" relative="1" as="geometry">
            <mxPoint as="offset" />
          </mxGeometry>
        </mxCell>
        <mxCell id="ssZqVwN0dkvFXgOk5NB9-13" value="Users" style="swimlane;" parent="1" vertex="1">
          <mxGeometry x="20" width="580" height="400" as="geometry" />
        </mxCell>
        <mxCell id="ssZqVwN0dkvFXgOk5NB9-14" value="Auth" style="swimlane;" parent="1" vertex="1">
          <mxGeometry x="20" y="440" width="780" height="370" as="geometry" />
        </mxCell>
        <mxCell id="ssZqVwN0dkvFXgOk5NB9-15" value="Auth" style="swimlane;fontStyle=1;align=center;verticalAlign=top;childLayout=stackLayout;horizontal=1;startSize=26;horizontalStack=0;resizeParent=1;resizeParentMax=0;resizeLast=0;collapsible=1;marginBottom=0;whiteSpace=wrap;html=1;" parent="ssZqVwN0dkvFXgOk5NB9-14" vertex="1">
          <mxGeometry x="20" y="50" width="160" height="180" as="geometry" />
        </mxCell>
        <mxCell id="ssZqVwN0dkvFXgOk5NB9-16" value="&lt;div&gt;+id:int&lt;/div&gt;&lt;div&gt;+token:string&lt;/div&gt;&lt;div&gt;+isAuthentified&lt;br&gt;&lt;/div&gt;&lt;div&gt;+createdAt:date&lt;/div&gt;&lt;div&gt;+idUser:int&lt;br&gt;&lt;/div&gt;&lt;div&gt;&lt;br&gt;&lt;/div&gt;" style="text;strokeColor=none;fillColor=none;align=left;verticalAlign=top;spacingLeft=4;spacingRight=4;overflow=hidden;rotatable=0;points=[[0,0.5],[1,0.5]];portConstraint=eastwest;whiteSpace=wrap;html=1;" parent="ssZqVwN0dkvFXgOk5NB9-15" vertex="1">
          <mxGeometry y="26" width="160" height="74" as="geometry" />
        </mxCell>
        <mxCell id="ssZqVwN0dkvFXgOk5NB9-17" value="" style="line;strokeWidth=1;fillColor=none;align=left;verticalAlign=middle;spacingTop=-1;spacingLeft=3;spacingRight=3;rotatable=0;labelPosition=right;points=[];portConstraint=eastwest;strokeColor=inherit;" parent="ssZqVwN0dkvFXgOk5NB9-15" vertex="1">
          <mxGeometry y="100" width="160" height="8" as="geometry" />
        </mxCell>
        <mxCell id="ssZqVwN0dkvFXgOk5NB9-18" value="&lt;div&gt;-generateToken()&lt;/div&gt;&lt;div&gt;-recoveryUser()&lt;/div&gt;&lt;div&gt;-checkPassword()&lt;br&gt;&lt;/div&gt;" style="text;strokeColor=none;fillColor=none;align=left;verticalAlign=top;spacingLeft=4;spacingRight=4;overflow=hidden;rotatable=0;points=[[0,0.5],[1,0.5]];portConstraint=eastwest;whiteSpace=wrap;html=1;" parent="ssZqVwN0dkvFXgOk5NB9-15" vertex="1">
          <mxGeometry y="108" width="160" height="72" as="geometry" />
        </mxCell>
        <mxCell id="ssZqVwN0dkvFXgOk5NB9-19" value="doubleFactor" style="swimlane;fontStyle=1;align=center;verticalAlign=top;childLayout=stackLayout;horizontal=1;startSize=26;horizontalStack=0;resizeParent=1;resizeParentMax=0;resizeLast=0;collapsible=1;marginBottom=0;whiteSpace=wrap;html=1;" parent="ssZqVwN0dkvFXgOk5NB9-14" vertex="1">
          <mxGeometry x="260" y="50" width="160" height="250" as="geometry" />
        </mxCell>
        <mxCell id="ssZqVwN0dkvFXgOk5NB9-20" value="&lt;div&gt;+id:int&lt;/div&gt;&lt;div&gt;+user:id&lt;/div&gt;&lt;div&gt;+code:int&lt;/div&gt;&lt;div&gt;+lifeTime:int&lt;br&gt;&lt;/div&gt;" style="text;strokeColor=none;fillColor=none;align=left;verticalAlign=top;spacingLeft=4;spacingRight=4;overflow=hidden;rotatable=0;points=[[0,0.5],[1,0.5]];portConstraint=eastwest;whiteSpace=wrap;html=1;" parent="ssZqVwN0dkvFXgOk5NB9-19" vertex="1">
          <mxGeometry y="26" width="160" height="94" as="geometry" />
        </mxCell>
        <mxCell id="ssZqVwN0dkvFXgOk5NB9-21" value="" style="line;strokeWidth=1;fillColor=none;align=left;verticalAlign=middle;spacingTop=-1;spacingLeft=3;spacingRight=3;rotatable=0;labelPosition=right;points=[];portConstraint=eastwest;strokeColor=inherit;" parent="ssZqVwN0dkvFXgOk5NB9-19" vertex="1">
          <mxGeometry y="120" width="160" height="8" as="geometry" />
        </mxCell>
        <mxCell id="ssZqVwN0dkvFXgOk5NB9-22" value="&lt;div&gt;+recoverymethode2fa()&lt;/div&gt;&lt;div&gt;+generateCode()&lt;/div&gt;&lt;div&gt;+checkCode()&lt;/div&gt;&lt;div&gt;+sendCode()&lt;br&gt;&lt;/div&gt;" style="text;strokeColor=none;fillColor=none;align=left;verticalAlign=top;spacingLeft=4;spacingRight=4;overflow=hidden;rotatable=0;points=[[0,0.5],[1,0.5]];portConstraint=eastwest;whiteSpace=wrap;html=1;" parent="ssZqVwN0dkvFXgOk5NB9-19" vertex="1">
          <mxGeometry y="128" width="160" height="122" as="geometry" />
        </mxCell>
        <mxCell id="ssZqVwN0dkvFXgOk5NB9-23" value="ForgetPassword" style="swimlane;fontStyle=1;align=center;verticalAlign=top;childLayout=stackLayout;horizontal=1;startSize=26;horizontalStack=0;resizeParent=1;resizeParentMax=0;resizeLast=0;collapsible=1;marginBottom=0;whiteSpace=wrap;html=1;" parent="ssZqVwN0dkvFXgOk5NB9-14" vertex="1">
          <mxGeometry x="500" y="50" width="180" height="150" as="geometry" />
        </mxCell>
        <mxCell id="ssZqVwN0dkvFXgOk5NB9-24" value="&lt;div&gt;+id:int&lt;/div&gt;&lt;div&gt;+email:string&lt;/div&gt;&lt;div&gt;+login:string&lt;br&gt;&lt;/div&gt;" style="text;strokeColor=none;fillColor=none;align=left;verticalAlign=top;spacingLeft=4;spacingRight=4;overflow=hidden;rotatable=0;points=[[0,0.5],[1,0.5]];portConstraint=eastwest;whiteSpace=wrap;html=1;" parent="ssZqVwN0dkvFXgOk5NB9-23" vertex="1">
          <mxGeometry y="26" width="180" height="64" as="geometry" />
        </mxCell>
        <mxCell id="ssZqVwN0dkvFXgOk5NB9-25" value="" style="line;strokeWidth=1;fillColor=none;align=left;verticalAlign=middle;spacingTop=-1;spacingLeft=3;spacingRight=3;rotatable=0;labelPosition=right;points=[];portConstraint=eastwest;strokeColor=inherit;" parent="ssZqVwN0dkvFXgOk5NB9-23" vertex="1">
          <mxGeometry y="90" width="180" height="8" as="geometry" />
        </mxCell>
        <mxCell id="ssZqVwN0dkvFXgOk5NB9-26" value="&lt;div&gt;+checkEmail()&lt;/div&gt;&lt;div&gt;+generateTempraryPassword()&lt;br&gt;&lt;/div&gt;+sendtemporaryPassword()" style="text;strokeColor=none;fillColor=none;align=left;verticalAlign=top;spacingLeft=4;spacingRight=4;overflow=hidden;rotatable=0;points=[[0,0.5],[1,0.5]];portConstraint=eastwest;whiteSpace=wrap;html=1;" parent="ssZqVwN0dkvFXgOk5NB9-23" vertex="1">
          <mxGeometry y="98" width="180" height="52" as="geometry" />
        </mxCell>
        <mxCell id="FUopotw_n5y9DI9uICjr-1" value="ParckServeurs" style="swimlane;" parent="1" vertex="1">
          <mxGeometry x="20" y="840" width="780" height="400" as="geometry" />
        </mxCell>
        <mxCell id="FUopotw_n5y9DI9uICjr-2" value="Serveur" style="swimlane;fontStyle=1;align=center;verticalAlign=top;childLayout=stackLayout;horizontal=1;startSize=26;horizontalStack=0;resizeParent=1;resizeParentMax=0;resizeLast=0;collapsible=1;marginBottom=0;whiteSpace=wrap;html=1;" parent="FUopotw_n5y9DI9uICjr-1" vertex="1">
          <mxGeometry x="20" y="39" width="160" height="200" as="geometry" />
        </mxCell>
        <mxCell id="FUopotw_n5y9DI9uICjr-3" value="&lt;div&gt;+id:int&lt;/div&gt;&lt;div&gt;+ip:string&lt;/div&gt;&lt;div&gt;+name:string&lt;/div&gt;&lt;div&gt;+host:string&lt;/div&gt;&lt;div&gt;+cleSSH:text&lt;br&gt;&lt;/div&gt;&lt;div&gt;+stateId:int&lt;br&gt;&lt;/div&gt;" style="text;strokeColor=none;fillColor=none;align=left;verticalAlign=top;spacingLeft=4;spacingRight=4;overflow=hidden;rotatable=0;points=[[0,0.5],[1,0.5]];portConstraint=eastwest;whiteSpace=wrap;html=1;" parent="FUopotw_n5y9DI9uICjr-2" vertex="1">
          <mxGeometry y="26" width="160" height="104" as="geometry" />
        </mxCell>
        <mxCell id="FUopotw_n5y9DI9uICjr-4" value="" style="line;strokeWidth=1;fillColor=none;align=left;verticalAlign=middle;spacingTop=-1;spacingLeft=3;spacingRight=3;rotatable=0;labelPosition=right;points=[];portConstraint=eastwest;strokeColor=inherit;" parent="FUopotw_n5y9DI9uICjr-2" vertex="1">
          <mxGeometry y="130" width="160" height="8" as="geometry" />
        </mxCell>
        <mxCell id="FUopotw_n5y9DI9uICjr-5" value="&lt;div&gt;+connection()&lt;/div&gt;&lt;div&gt;&lt;br&gt;&lt;/div&gt;" style="text;strokeColor=none;fillColor=none;align=left;verticalAlign=top;spacingLeft=4;spacingRight=4;overflow=hidden;rotatable=0;points=[[0,0.5],[1,0.5]];portConstraint=eastwest;whiteSpace=wrap;html=1;" parent="FUopotw_n5y9DI9uICjr-2" vertex="1">
          <mxGeometry y="138" width="160" height="62" as="geometry" />
        </mxCell>
        <mxCell id="FUopotw_n5y9DI9uICjr-11" value="State" style="swimlane;fontStyle=1;align=center;verticalAlign=top;childLayout=stackLayout;horizontal=1;startSize=26;horizontalStack=0;resizeParent=1;resizeParentMax=0;resizeLast=0;collapsible=1;marginBottom=0;whiteSpace=wrap;html=1;" parent="FUopotw_n5y9DI9uICjr-1" vertex="1">
          <mxGeometry x="220" y="39" width="160" height="184" as="geometry" />
        </mxCell>
        <mxCell id="FUopotw_n5y9DI9uICjr-12" value="&lt;div&gt;+id:int&lt;/div&gt;&lt;div&gt;+serveurState:int&lt;/div&gt;&lt;div&gt;+databaseState:int&lt;/div&gt;" style="text;strokeColor=none;fillColor=none;align=left;verticalAlign=top;spacingLeft=4;spacingRight=4;overflow=hidden;rotatable=0;points=[[0,0.5],[1,0.5]];portConstraint=eastwest;whiteSpace=wrap;html=1;" parent="FUopotw_n5y9DI9uICjr-11" vertex="1">
          <mxGeometry y="26" width="160" height="124" as="geometry" />
        </mxCell>
        <mxCell id="FUopotw_n5y9DI9uICjr-13" value="" style="line;strokeWidth=1;fillColor=none;align=left;verticalAlign=middle;spacingTop=-1;spacingLeft=3;spacingRight=3;rotatable=0;labelPosition=right;points=[];portConstraint=eastwest;strokeColor=inherit;" parent="FUopotw_n5y9DI9uICjr-11" vertex="1">
          <mxGeometry y="150" width="160" height="8" as="geometry" />
        </mxCell>
        <mxCell id="FUopotw_n5y9DI9uICjr-14" value="+ method(type): type" style="text;strokeColor=none;fillColor=none;align=left;verticalAlign=top;spacingLeft=4;spacingRight=4;overflow=hidden;rotatable=0;points=[[0,0.5],[1,0.5]];portConstraint=eastwest;whiteSpace=wrap;html=1;" parent="FUopotw_n5y9DI9uICjr-11" vertex="1">
          <mxGeometry y="158" width="160" height="26" as="geometry" />
        </mxCell>
      </root>
    </mxGraphModel>
  </diagram>
</mxfile>
